<?xml version="1.0" encoding="utf-8"?>
<!-- Generator: Adobe Illustrator 22.0.1, SVG Export Plug-In . SVG Version: 6.00 Build 0)  -->
<!DOCTYPE svg PUBLIC "-//W3C//DTD SVG 1.0//EN" "http://www.w3.org/TR/2001/REC-SVG-20010904/DTD/svg10.dtd">
<svg version="1.0" id="Layer_1" xmlns="http://www.w3.org/2000/svg" xmlns:xlink="http://www.w3.org/1999/xlink" x="0px" y="0px"
	 width="11.1px" height="15.7px" viewBox="0 0 11.1 15.7" enable-background="new 0 0 11.1 15.7" xml:space="preserve">
<title>Asset 1</title>
<g id="Layer_2_1_">
	<g id="Layer_1-2">
		<g id="_Group_">
			<path fill="#FF620B" d="M5.6,0.3c2.8-0.1,5.2,2,5.3,4.8c0,0.2,0,0.3,0,0.5c0,2.7-4.2,8.2-5.3,9.7c-1.2-1.5-5.3-7.1-5.3-9.7
				c-0.1-2.8,2-5.2,4.8-5.3C5.2,0.2,5.4,0.2,5.6,0.3z"/>
			<path fill="none" stroke="#893903" stroke-width="0.5" stroke-miterlimit="10" d="M5.6,0.3c-2.8-0.1-5.2,2-5.3,4.8
				c0,0.2,0,0.3,0,0.5c0,2.6,4.1,8.2,5.3,9.7c1.1-1.5,5.3-7,5.3-9.7C11,2.8,8.8,0.4,6,0.3C5.8,0.3,5.8,0.3,5.6,0.3z"/>
		</g>
	</g>
</g>
</svg>
