<?xml version="1.0" encoding="utf-8"?>
<!-- Generator: Adobe Illustrator 22.0.1, SVG Export Plug-In . SVG Version: 6.00 Build 0)  -->
<!DOCTYPE svg PUBLIC "-//W3C//DTD SVG 1.1//EN" "http://www.w3.org/Graphics/SVG/1.1/DTD/svg11.dtd">
<svg version="1.1" id="Layer_1" xmlns="http://www.w3.org/2000/svg" xmlns:xlink="http://www.w3.org/1999/xlink" x="0px" y="0px"
	 viewBox="0 0 11.1 15.7" style="enable-background:new 0 0 11.1 15.7;" xml:space="preserve">
<style type="text/css">
	.st0{fill:#FF620B;}
	.st1{fill:none;stroke:#893903;stroke-width:0.5;stroke-miterlimit:10;}
</style>
<title>Asset 1</title>
<g id="Layer_2_1_">
	<g id="Layer_1-2">
		<g id="_Group_">
			<path class="st0" d="M5.6,0.3c2.8-0.1,5.2,2,5.3,4.8c0,0.2,0,0.3,0,0.5c0,2.7-4.2,8.2-5.3,9.7c-1.2-1.5-5.3-7.1-5.3-9.7
				c-0.1-2.8,2-5.2,4.8-5.3C5.2,0.2,5.4,0.2,5.6,0.3z"/>
			<path class="st1" d="M5.6,0.3c-2.8-0.1-5.2,2-5.3,4.8c0,0.2,0,0.3,0,0.5c0,2.6,4.1,8.2,5.3,9.7c1.1-1.5,5.3-7,5.3-9.7
				C11,2.8,8.8,0.4,6,0.3C5.9,0.2,5.7,0.2,5.6,0.3z"/>
		</g>
	</g>
</g>
</svg>
