<?xml version="1.0" encoding="utf-8"?>
<!-- Generator: Adobe Illustrator 22.0.1, SVG Export Plug-In . SVG Version: 6.00 Build 0)  -->
<svg version="1.0"
	 id="svg4619" inkscape:version="0.91 r13725" sodipodi:docname="suitcase-15.svg" xmlns:cc="http://creativecommons.org/ns#" xmlns:dc="http://purl.org/dc/elements/1.1/" xmlns:inkscape="http://www.inkscape.org/namespaces/inkscape" xmlns:rdf="http://www.w3.org/1999/02/22-rdf-syntax-ns#" xmlns:sodipodi="http://sodipodi.sourceforge.net/DTD/sodipodi-0.dtd" xmlns:svg="http://www.w3.org/2000/svg"
	 xmlns="http://www.w3.org/2000/svg" xmlns:xlink="http://www.w3.org/1999/xlink" x="0px" y="0px" width="150px" height="200px"
	 viewBox="0 0 150 200" enable-background="new 0 0 150 200" xml:space="preserve">
<g>
	<path fill="#0FAED3" d="M73.5,198.5C36.8,183.8,1.5,127.9,1.5,85.3V23.5L73.5,1.5h2.9l72.1,22.1v61.8
		C148.5,127.9,111.8,183.8,73.5,198.5z M75,17.6c-33.8,0-61.8,27.9-61.8,61.8s27.9,61.8,61.8,61.8s61.8-27.9,61.8-61.8
		S108.8,17.6,75,17.6z"/>
	<path fill="#0E5763" d="M76.5,2.9L147.1,25v61.8c0,42.6-35.3,97.1-73.5,111.8C38.2,182.4,2.9,126.5,2.9,85.3V23.5L73.5,1.5
		L76.5,2.9L76.5,2.9 M75,142.6c35.3,0,63.2-27.9,63.2-63.2S110.3,16.2,75,16.2S11.8,44.1,11.8,79.4S39.7,142.6,75,142.6 M76.5,0
		L76.5,0h-2.9L0,22.1v63.2c0,44.1,36.8,100,73.5,114.7c38.2-14.7,76.5-69.1,76.5-114.7V22.1L76.5,0L76.5,0z M75,139.7
		c-32.4,0-60.3-26.5-60.3-60.3S41.2,19.1,75,19.1s60.3,26.5,60.3,60.3S107.4,139.7,75,139.7L75,139.7z"/>
</g>
<g>
	<path fill="#0FAED3" d="M75,85.3c-13.2,0-23.5-10.3-23.5-23.5S61.8,38.2,75,38.2s23.5,10.3,23.5,23.5S88.2,85.3,75,85.3z"/>
	<g>
		<path fill="#0E5763" d="M75,39.7c11.8,0,22.1,10.3,22.1,22.1S86.8,83.8,75,83.8S52.9,73.5,52.9,61.8S63.2,39.7,75,39.7 M75,36.8
			c-13.2,0-25,11.8-25,25s11.8,25,25,25s25-11.8,25-25S88.2,36.8,75,36.8L75,36.8z"/>
	</g>
</g>
<g>
	<path fill="#0FAED3" d="M75,132.4c-14.7,0-29.4-5.9-39.7-17.6c7.4-13.2,23.5-20.6,39.7-20.6s32.4,7.4,39.7,20.6
		C104.4,126.5,89.7,132.4,75,132.4z"/>
	<g>
		<path fill="#0E5763" d="M75,95.6c16.2,0,30.9,7.4,38.2,19.1C102.9,125,89.7,130.9,75,130.9s-27.9-5.9-38.2-16.2
			C44.1,102.9,58.8,95.6,75,95.6 M75,92.6c-17.6,0-33.8,8.8-41.2,22.1c10.3,11.8,25,19.1,41.2,19.1s30.9-7.4,41.2-19.1
			C108.8,101.5,92.6,92.6,75,92.6L75,92.6z"/>
	</g>
</g>
</svg>
