<?xml version="1.0" encoding="utf-8"?>
<!-- Generator: Adobe Illustrator 22.0.1, SVG Export Plug-In . SVG Version: 6.00 Build 0)  -->
<svg version="1.0"
	 id="svg4619" inkscape:version="0.91 r13725" sodipodi:docname="suitcase-15.svg" xmlns:cc="http://creativecommons.org/ns#" xmlns:dc="http://purl.org/dc/elements/1.1/" xmlns:inkscape="http://www.inkscape.org/namespaces/inkscape" xmlns:rdf="http://www.w3.org/1999/02/22-rdf-syntax-ns#" xmlns:sodipodi="http://sodipodi.sourceforge.net/DTD/sodipodi-0.dtd" xmlns:svg="http://www.w3.org/2000/svg"
	 xmlns="http://www.w3.org/2000/svg" xmlns:xlink="http://www.w3.org/1999/xlink" x="0px" y="0px" width="15px" height="15px"
	 viewBox="0 0 15 15" enable-background="new 0 0 15 15" xml:space="preserve">
<g>
	<path fill="#0FAED3" d="M7.5,14.2c-2.5-1-4.9-4.8-4.9-7.7V2.3l4.9-1.5h0.2l4.9,1.5v4.2C12.6,9.4,10.1,13.2,7.5,14.2z M7.6,1.9
		c-2.3,0-4.2,1.9-4.2,4.2s1.9,4.2,4.2,4.2s4.2-1.9,4.2-4.2S9.9,1.9,7.6,1.9z"/>
	<path fill="#0E5763" d="M7.7,0.9l4.8,1.5v4.2c0,2.9-2.4,6.6-5,7.6c-2.4-1.1-4.8-4.9-4.8-7.7V2.3l4.8-1.5L7.7,0.9L7.7,0.9 M7.6,10.4
		c2.4,0,4.3-1.9,4.3-4.3S10,1.8,7.6,1.8S3.3,3.7,3.3,6.1S5.2,10.4,7.6,10.4 M7.7,0.7L7.7,0.7H7.5l-5,1.5v4.3c0,3,2.5,6.8,5,7.8
		c2.6-1,5.2-4.7,5.2-7.8V2.2L7.7,0.7L7.7,0.7z M7.6,10.2c-2.2,0-4.1-1.8-4.1-4.1S5.3,2,7.6,2s4.1,1.8,4.1,4.1S9.8,10.2,7.6,10.2
		L7.6,10.2z"/>
</g>
<g>
	<path fill="#0FAED3" d="M7.6,6.5C6.7,6.5,6,5.8,6,4.9s0.7-1.6,1.6-1.6S9.2,4,9.2,4.9S8.5,6.5,7.6,6.5z"/>
	<g>
		<path fill="#0E5763" d="M7.6,3.4c0.8,0,1.5,0.7,1.5,1.5S8.4,6.4,7.6,6.4S6.1,5.7,6.1,4.9S6.8,3.4,7.6,3.4 M7.6,3.2
			C6.7,3.2,5.9,4,5.9,4.9s0.8,1.7,1.7,1.7s1.7-0.8,1.7-1.7S8.5,3.2,7.6,3.2L7.6,3.2z"/>
	</g>
</g>
<g>
	<path fill="#0FAED3" d="M7.6,9.7c-1,0-2-0.4-2.7-1.2c0.5-0.9,1.6-1.4,2.7-1.4s2.2,0.5,2.7,1.4C9.6,9.3,8.6,9.7,7.6,9.7z"/>
	<g>
		<path fill="#0E5763" d="M7.6,7.2c1.1,0,2.1,0.5,2.6,1.3C9.5,9.2,8.6,9.6,7.6,9.6S5.7,9.2,5,8.5C5.5,7.7,6.5,7.2,7.6,7.2 M7.6,7
			C6.4,7,5.3,7.6,4.8,8.5c0.7,0.8,1.7,1.3,2.8,1.3s2.1-0.5,2.8-1.3C9.9,7.6,8.8,7,7.6,7L7.6,7z"/>
	</g>
</g>
</svg>
